<svg width="540" height="135" viewBox="0 0 540 135" fill="none" xmlns="http://www.w3.org/2000/svg">
<path d="M163.132 32.8187H171.854L178.446 52.1983H178.525L184.761 32.8187H193.484V61H187.682V41.0284H187.603L180.696 61H175.92L169.013 41.2258H168.934V61H163.132V32.8187ZM203.163 51.6457C203.163 52.593 203.321 53.4218 203.676 54.0534C203.992 54.7243 204.465 55.2769 205.018 55.6716C205.57 56.0663 206.241 56.3821 207.031 56.5794C207.781 56.7768 208.57 56.8557 209.399 56.8557C209.951 56.8557 210.543 56.8162 211.175 56.7373C211.806 56.6583 212.399 56.461 212.951 56.1847C213.504 55.9479 213.938 55.5927 214.333 55.119C214.688 54.6454 214.885 54.0534 214.885 53.3429C214.885 52.593 214.609 51.9615 214.135 51.4878C213.662 51.0142 213.03 50.6195 212.241 50.3038C211.451 49.988 210.543 49.7117 209.557 49.4749C208.531 49.2381 207.544 49.0013 206.518 48.6855C205.452 48.4487 204.426 48.1329 203.439 47.7382C202.413 47.3435 201.544 46.8699 200.755 46.2384C199.966 45.6463 199.295 44.8964 198.821 43.9886C198.347 43.0808 198.111 41.9757 198.111 40.6732C198.111 39.2523 198.387 37.9893 199.018 36.9236C199.65 35.8579 200.439 34.9501 201.465 34.2396C202.452 33.5292 203.597 33.0161 204.86 32.6609C206.123 32.3451 207.386 32.1478 208.649 32.1478C210.109 32.1478 211.53 32.3451 212.872 32.6609C214.214 32.9766 215.438 33.5292 216.503 34.2396C217.53 34.9896 218.358 35.9368 218.99 37.0815C219.621 38.2261 219.937 39.6075 219.937 41.2258H213.938C213.859 40.3969 213.701 39.7259 213.385 39.1339C213.07 38.5813 212.675 38.1471 212.201 37.8314C211.688 37.5551 211.096 37.3183 210.465 37.1604C209.833 37.042 209.123 37.0025 208.373 36.963C207.86 36.963 207.346 37.042 206.873 37.1209C206.36 37.2393 205.886 37.4367 205.491 37.6735C205.097 37.9498 204.741 38.2655 204.505 38.6602C204.228 39.0549 204.11 39.568 204.11 40.1601C204.11 40.7127 204.189 41.1863 204.426 41.502C204.623 41.8573 205.018 42.173 205.649 42.4493C206.281 42.7651 207.11 43.0414 208.215 43.3176C209.32 43.6334 210.741 43.9886 212.517 44.4228C213.03 44.5412 213.741 44.7385 214.688 45.0148C215.635 45.2911 216.543 45.7253 217.49 46.3173C218.398 46.9488 219.187 47.7382 219.858 48.7644C220.529 49.7906 220.884 51.0537 220.884 52.6325C220.884 53.935 220.608 55.119 220.135 56.2242C219.621 57.3293 218.872 58.3161 217.885 59.1055C216.898 59.8949 215.675 60.5264 214.214 60.9605C212.754 61.4342 211.057 61.6315 209.162 61.6315C207.583 61.6315 206.083 61.4736 204.623 61.0789C203.163 60.6842 201.86 60.0922 200.755 59.2633C199.65 58.4739 198.742 57.4083 198.111 56.1452C197.44 54.8822 197.124 53.3824 197.163 51.6457H203.163ZM224.571 32.8187H233.294L239.886 52.1983H239.965L246.201 32.8187H254.924V61H249.122V41.0284H249.043L242.135 61H237.36L230.452 41.2258H230.374V61H224.571V32.8187ZM260.379 32.8187H281.456V38.0287H266.576V44.0676H280.232V48.8828H266.576V55.79H281.772V61H260.379V32.8187ZM353.75 42.2914C353.632 41.581 353.395 40.9495 353.04 40.3574C352.645 39.7654 352.211 39.2523 351.658 38.7786C351.106 38.3445 350.474 37.9893 349.764 37.7524C349.053 37.5156 348.343 37.3972 347.593 37.3577C346.172 37.3577 344.988 37.634 344.041 38.1866C343.054 38.7392 342.265 39.4496 341.673 40.3574C341.041 41.2652 340.607 42.2914 340.331 43.4361C340.054 44.6201 339.936 45.8042 339.936 47.0278C339.936 48.2119 340.054 49.396 340.331 50.5011C340.607 51.6062 341.041 52.6325 341.673 53.5008C342.265 54.4086 343.054 55.119 344.041 55.6716C344.988 56.2242 346.172 56.461 347.593 56.461C349.488 56.461 350.948 55.9084 352.014 54.7243C353.079 53.5797 353.75 52.0404 353.987 50.1459H359.987C359.829 51.922 359.395 53.5008 358.763 54.9217C358.092 56.3426 357.224 57.5661 356.158 58.5529C355.053 59.5791 353.79 60.329 352.369 60.8421C350.909 61.3947 349.33 61.6315 347.593 61.6315C345.422 61.6315 343.488 61.2763 341.752 60.5264C340.015 59.7764 338.594 58.7502 337.41 57.4083C336.226 56.1058 335.318 54.5665 334.687 52.7903C334.055 51.0142 333.739 49.0802 333.739 47.0278C333.739 44.9359 334.055 43.0019 334.687 41.1863C335.318 39.3707 336.226 37.7919 337.41 36.4499C338.594 35.1474 340.015 34.0818 341.752 33.2924C343.488 32.5425 345.422 32.1872 347.593 32.1478C349.132 32.1478 350.593 32.3846 351.974 32.8187C353.356 33.2924 354.579 33.9239 355.684 34.7922C356.79 35.6606 357.697 36.6868 358.408 37.9498C359.118 39.2128 359.552 40.6732 359.75 42.2914H353.75ZM369.191 47.0278C369.191 48.2119 369.31 49.396 369.586 50.5011C369.862 51.6062 370.296 52.6325 370.928 53.5008C371.52 54.4086 372.309 55.119 373.296 55.6716C374.243 56.2242 375.427 56.461 376.848 56.461C378.23 56.461 379.414 56.2242 380.401 55.6716C381.348 55.119 382.137 54.4086 382.769 53.5008C383.361 52.6325 383.795 51.6062 384.071 50.5011C384.348 49.396 384.505 48.2119 384.505 47.0278C384.505 45.8042 384.348 44.6201 384.071 43.4361C383.795 42.2914 383.361 41.2652 382.769 40.3574C382.137 39.4496 381.348 38.7392 380.401 38.1866C379.414 37.634 378.23 37.3577 376.848 37.3577C375.427 37.3577 374.243 37.634 373.296 38.1866C372.309 38.7392 371.52 39.4496 370.928 40.3574C370.296 41.2652 369.862 42.2914 369.586 43.4361C369.31 44.6201 369.191 45.8042 369.191 47.0278ZM362.995 47.0278C362.995 44.9359 363.31 43.0019 363.942 41.1863C364.573 39.3707 365.481 37.7919 366.665 36.4499C367.849 35.1474 369.27 34.0818 371.007 33.2924C372.744 32.5425 374.678 32.1872 376.848 32.1478C379.019 32.1478 380.953 32.5425 382.69 33.2924C384.387 34.0818 385.808 35.108 387.032 36.4499C388.216 37.7919 389.123 39.3707 389.755 41.1863C390.386 43.0019 390.702 44.9359 390.702 47.0278C390.702 49.0802 390.386 51.0142 389.755 52.7903C389.123 54.5665 388.216 56.1058 387.032 57.4083C385.847 58.7502 384.387 59.7764 382.69 60.5264C380.953 61.2763 379.019 61.6315 376.848 61.6315C374.678 61.6315 372.744 61.2763 371.007 60.5264C369.27 59.7764 367.849 58.7502 366.665 57.4083C365.481 56.1058 364.573 54.5665 363.942 52.7903C363.31 51.0142 362.995 49.0802 362.995 47.0278ZM394.938 32.8187H401.095L412.857 51.7247H412.936V32.8187H418.738V61H412.542L400.819 42.1336H400.74V61H394.938V32.8187ZM424.193 32.8187H430.351L442.113 51.7247H442.191V32.8187H447.993V61H441.797L430.074 42.1336H429.995V61H424.193V32.8187ZM453.449 32.8187H474.525V38.0287H459.645V44.0676H473.302V48.8828H459.645V55.79H474.841V61H453.449V32.8187ZM497.83 42.2914C497.711 41.581 497.474 40.9495 497.119 40.3574C496.724 39.7654 496.29 39.2523 495.738 38.7786C495.185 38.3445 494.554 37.9893 493.843 37.7524C493.133 37.5156 492.422 37.3972 491.672 37.3577C490.251 37.3577 489.067 37.634 488.12 38.1866C487.133 38.7392 486.344 39.4496 485.752 40.3574C485.12 41.2652 484.686 42.2914 484.41 43.4361C484.134 44.6201 484.015 45.8042 484.015 47.0278C484.015 48.2119 484.134 49.396 484.41 50.5011C484.686 51.6062 485.12 52.6325 485.752 53.5008C486.344 54.4086 487.133 55.119 488.12 55.6716C489.067 56.2242 490.251 56.461 491.672 56.461C493.567 56.461 495.027 55.9084 496.093 54.7243C497.159 53.5797 497.83 52.0404 498.066 50.1459H504.066C503.908 51.922 503.474 53.5008 502.842 54.9217C502.171 56.3426 501.303 57.5661 500.237 58.5529C499.132 59.5791 497.869 60.329 496.448 60.8421C494.988 61.3947 493.409 61.6315 491.672 61.6315C489.502 61.6315 487.568 61.2763 485.831 60.5264C484.094 59.7764 482.673 58.7502 481.489 57.4083C480.305 56.1058 479.397 54.5665 478.766 52.7903C478.134 51.0142 477.819 49.0802 477.819 47.0278C477.819 44.9359 478.134 43.0019 478.766 41.1863C479.397 39.3707 480.305 37.7919 481.489 36.4499C482.673 35.1474 484.094 34.0818 485.831 33.2924C487.568 32.5425 489.502 32.1872 491.672 32.1478C493.212 32.1478 494.672 32.3846 496.053 32.8187C497.435 33.2924 498.658 33.9239 499.764 34.7922C500.869 35.6606 501.777 36.6868 502.487 37.9498C503.197 39.2128 503.632 40.6732 503.829 42.2914H497.83ZM514.534 38.0287H506.087V32.8187H529.177V38.0287H520.73V61H514.534V38.0287Z" fill="#494949"/>
<path d="M309.707 61H304.102V43.0808H297.155V38.8576C298.103 38.8971 299.05 38.8181 299.958 38.6602C300.866 38.5024 301.694 38.1866 302.405 37.7524C303.115 37.3183 303.747 36.7262 304.26 36.0158C304.734 35.3053 305.049 34.437 305.247 33.3713H309.707V61ZM318.258 47.8172H330.139V52.6325H318.258V47.8172Z" fill="#FF6700"/>
<path d="M171.952 101.954C169.528 101.954 167.621 101.26 166.233 99.8721C164.846 98.4842 164.152 96.455 164.152 93.7846V83.2962H166.787V93.6792C166.787 95.7347 167.235 97.2368 168.131 98.1855C169.044 99.1342 170.327 99.6086 171.978 99.6086C173.647 99.6086 174.93 99.1342 175.826 98.1855C176.739 97.2368 177.196 95.7347 177.196 93.6792V83.2962H179.752V93.7846C179.752 96.455 179.058 98.4842 177.671 99.8721C176.3 101.26 174.394 101.954 171.952 101.954ZM199.815 101.743V85.5889H193.491V83.2962H208.749V85.5889H202.424V101.743H199.815ZM226.871 101.743V85.5889H220.547V83.2962H235.805V85.5889H229.48V101.743H226.871ZM246.287 101.743L254.641 83.2962H257.25L265.63 101.743H262.863L255.405 84.772H256.459L249.001 101.743H246.287ZM249.844 97.1314L250.556 95.0232H260.939L261.703 97.1314H249.844ZM279.713 101.743V83.2962H286.908C288.524 83.2962 289.903 83.551 291.045 84.0604C292.187 84.5699 293.065 85.3078 293.68 86.2741C294.295 87.2403 294.603 88.3911 294.603 89.7263C294.603 91.0615 294.295 92.2122 293.68 93.1785C293.065 94.1272 292.187 94.8563 291.045 95.3658C289.903 95.8753 288.524 96.13 286.908 96.13H281.163L282.349 94.9178V101.743H279.713ZM292.046 101.743L287.356 95.0496H290.175L294.919 101.743H292.046ZM282.349 95.1813L281.163 93.89H286.829C288.515 93.89 289.789 93.5299 290.65 92.8096C291.528 92.0717 291.967 91.0439 291.967 89.7263C291.967 88.4087 291.528 87.3897 290.65 86.6694C289.789 85.9491 288.515 85.5889 286.829 85.5889H281.163L282.349 84.2713V95.1813ZM328.601 101.743V83.2962H335.795C337.411 83.2962 338.79 83.551 339.932 84.0604C341.074 84.5699 341.953 85.3078 342.568 86.2741C343.183 87.2403 343.49 88.3911 343.49 89.7263C343.49 91.0615 343.183 92.2122 342.568 93.1785C341.953 94.1272 341.074 94.8651 339.932 95.3921C338.79 95.9016 337.411 96.1564 335.795 96.1564H330.05L331.236 94.9178V101.743H328.601ZM331.236 95.1813L330.05 93.8637H335.716C337.403 93.8637 338.676 93.5035 339.537 92.7832C340.416 92.0629 340.855 91.0439 340.855 89.7263C340.855 88.4087 340.416 87.3897 339.537 86.6694C338.676 85.9491 337.403 85.5889 335.716 85.5889H330.05L331.236 84.2713V95.1813ZM358.693 101.743V83.2962H365.888C367.504 83.2962 368.883 83.551 370.025 84.0604C371.167 84.5699 372.045 85.3078 372.66 86.2741C373.275 87.2403 373.583 88.3911 373.583 89.7263C373.583 91.0615 373.275 92.2122 372.66 93.1785C372.045 94.1272 371.167 94.8563 370.025 95.3658C368.883 95.8753 367.504 96.13 365.888 96.13H360.143L361.329 94.9178V101.743H358.693ZM371.026 101.743L366.336 95.0496H369.155L373.899 101.743H371.026ZM361.329 95.1813L360.143 93.89H365.809C367.495 93.89 368.769 93.5299 369.63 92.8096C370.508 92.0717 370.947 91.0439 370.947 89.7263C370.947 88.4087 370.508 87.3897 369.63 86.6694C368.769 85.9491 367.495 85.5889 365.809 85.5889H360.143L361.329 84.2713V95.1813ZM386.379 101.743L394.732 83.2962H397.341L405.722 101.743H402.955L395.497 84.772H396.551L389.093 101.743H386.379ZM389.936 97.1314L390.648 95.0232H401.031L401.795 97.1314H389.936ZM419.805 101.743V83.2962H427.579C429.547 83.2962 431.277 83.6827 432.771 84.4557C434.282 85.2287 435.45 86.3092 436.276 87.6971C437.119 89.085 437.54 90.6926 437.54 92.5197C437.54 94.3468 437.119 95.9543 436.276 97.3422C435.45 98.7302 434.282 99.8106 432.771 100.584C431.277 101.357 429.547 101.743 427.579 101.743H419.805ZM422.44 99.4505H427.421C428.949 99.4505 430.267 99.1606 431.374 98.5808C432.498 98.0011 433.368 97.1929 433.983 96.1564C434.598 95.1023 434.905 93.89 434.905 92.5197C434.905 91.1318 434.598 89.9195 433.983 88.883C433.368 87.8465 432.498 87.0383 431.374 86.4585C430.267 85.8788 428.949 85.5889 427.421 85.5889H422.44V99.4505ZM455.307 91.2548H464.794V93.4947H455.307V91.2548ZM455.544 99.4505H466.296V101.743H452.909V83.2962H465.927V85.5889H455.544V99.4505ZM487.271 101.954C485.865 101.954 484.521 101.743 483.239 101.322C481.956 100.882 480.946 100.32 480.208 99.6349L481.183 97.5794C481.886 98.1943 482.782 98.7038 483.871 99.1079C484.96 99.512 486.094 99.714 487.271 99.714C488.342 99.714 489.212 99.591 489.88 99.3451C490.547 99.0991 491.039 98.7653 491.355 98.3437C491.672 97.9044 491.83 97.4125 491.83 96.8679C491.83 96.2354 491.619 95.7259 491.197 95.3394C490.793 94.9529 490.257 94.6455 489.59 94.4171C488.94 94.1711 488.219 93.9603 487.429 93.7846C486.638 93.6089 485.839 93.4069 485.031 93.1785C484.24 92.9325 483.511 92.6251 482.843 92.2562C482.193 91.8872 481.666 91.3953 481.262 90.7804C480.858 90.1479 480.656 89.3398 480.656 88.3559C480.656 87.4072 480.902 86.5376 481.394 85.747C481.904 84.9389 482.677 84.2976 483.713 83.8233C484.767 83.3314 486.102 83.0854 487.719 83.0854C488.79 83.0854 489.853 83.2259 490.907 83.507C491.961 83.7881 492.875 84.1922 493.648 84.7193L492.778 86.8275C491.988 86.3004 491.153 85.9227 490.275 85.6943C489.396 85.4484 488.544 85.3254 487.719 85.3254C486.682 85.3254 485.83 85.4571 485.162 85.7207C484.495 85.9842 484.003 86.3356 483.687 86.7748C483.388 87.214 483.239 87.7059 483.239 88.2505C483.239 88.9006 483.441 89.4188 483.845 89.8054C484.266 90.1919 484.802 90.4993 485.452 90.7277C486.12 90.9561 486.849 91.1669 487.64 91.3602C488.43 91.5359 489.221 91.7379 490.011 91.9663C490.82 92.1947 491.549 92.4933 492.199 92.8623C492.866 93.2312 493.402 93.7231 493.806 94.338C494.21 94.9529 494.412 95.7435 494.412 96.7098C494.412 97.6409 494.158 98.5106 493.648 99.3187C493.139 100.109 492.348 100.751 491.276 101.242C490.222 101.717 488.887 101.954 487.271 101.954ZM522.823 83.2962H525.458V101.743H522.823V83.2962ZM512.229 101.743H509.594V83.2962H512.229V101.743ZM523.06 93.5211H511.966V91.2284H523.06V93.5211Z" fill="#494949"/>
<path d="M124.49 82.7227C124.957 80.0336 125.417 77.412 125.958 74.8089C126.019 74.4835 126.811 74.1213 127.296 74.109C128.929 74.0538 130.562 74.109 132.294 74.109C132.868 74.1059 133.419 73.8769 133.827 73.4715C134.235 73.0661 134.467 72.5167 134.473 71.9418V63.1686C134.471 62.8837 134.413 62.6019 134.301 62.3398C134.189 62.0785 134.029 61.841 133.828 61.6399C133.626 61.4397 133.386 61.2812 133.122 61.1733C132.86 61.0626 132.578 61.0082 132.294 61.0136H127.296C126.829 61.0136 126.019 60.6453 125.958 60.3199C125.417 57.7106 124.957 55.0891 124.49 52.4H124.392C124.299 51.9167 124.375 51.416 124.608 50.9822C124.84 50.5484 125.215 50.2079 125.669 50.0179L129.825 48.3112C130.352 48.0862 130.768 47.6633 130.986 47.1338C131.203 46.6042 131.203 46.0105 130.986 45.4809C129.979 43.0251 128.972 40.6062 127.953 38.1136C127.846 37.8513 127.689 37.6127 127.49 37.4115C127.291 37.2102 127.054 37.0503 126.793 36.9409C126.261 36.7233 125.666 36.7233 125.135 36.9409L120.936 38.6784C120.482 38.8569 119.982 38.8742 119.517 38.7275C119.051 38.5881 118.647 38.2907 118.375 37.8864L114.256 31.747C113.967 31.3198 113.841 30.8035 113.899 30.2912C113.958 29.779 114.197 29.3045 114.575 28.9535L117.755 25.9882C117.969 25.7887 118.14 25.5487 118.259 25.2822C118.38 25.018 118.445 24.7316 118.449 24.4411C118.458 24.1512 118.408 23.8625 118.303 23.5924C118.197 23.3223 118.038 23.0764 117.835 22.8694L111.917 16.8957C111.71 16.6875 111.464 16.5227 111.192 16.4107C110.92 16.303 110.628 16.2508 110.335 16.2572C110.042 16.2635 109.753 16.3282 109.486 16.4475C109.221 16.5718 108.983 16.7471 108.786 16.9632L105.937 20.1189C105.587 20.5006 105.113 20.7445 104.599 20.8065C104.086 20.8651 103.568 20.7412 103.137 20.4566L96.6787 16.159C96.2657 15.8761 95.9622 15.46 95.8192 14.9802C95.6721 14.5041 95.6959 13.9916 95.8867 13.5313L97.5935 9.37491C97.8067 8.84672 97.8046 8.25607 97.5877 7.72939C97.3708 7.20271 96.9564 6.78186 96.4331 6.55691L89.0351 3.4872C88.504 3.26953 87.9086 3.26953 87.3775 3.4872C87.1137 3.59414 86.8737 3.75229 86.6714 3.95251C86.4691 4.15272 86.3084 4.39104 86.1987 4.65369C85.3637 6.64286 84.5963 8.55222 83.7429 10.4493H83.5403C83.576 10.3774 83.6193 10.3095 83.6693 10.2467L75.6389 8.66887C75.1452 8.56489 74.703 8.29239 74.3883 7.89809C74.0735 7.50379 73.9057 7.01226 73.9137 6.50779V2.21019C73.9203 1.92281 73.8694 1.637 73.7641 1.36952C73.6588 1.10204 73.5012 0.858245 73.3005 0.652422C73.0998 0.4466 72.8601 0.282882 72.5954 0.170855C72.3307 0.0588276 72.0462 0.000742379 71.7588 0L62.7645 0C62.1908 -2.30207e-06 61.6405 0.227486 61.2342 0.632591C60.828 1.0377 60.5989 1.58736 60.5973 2.16108V6.48938C60.5986 6.99098 60.4249 7.47733 60.1061 7.86461C59.7927 8.24529 59.3601 8.50917 58.8783 8.61362L50.8233 10.1915L50.9523 10.4002H50.7496L48.2939 4.63527C48.1842 4.37262 48.0235 4.1343 47.8212 3.93409C47.6189 3.73387 47.3789 3.57573 47.1151 3.46878C46.584 3.25111 45.9886 3.25111 45.4575 3.46878L38.0902 6.53849C37.5608 6.7607 37.1397 7.18175 36.9175 7.71112C36.7027 8.24492 36.7027 8.84111 36.9175 9.37491C37.5315 10.8422 38.0779 12.2175 38.6243 13.5374C38.8292 13.9975 38.864 14.5153 38.7225 14.9986C38.5759 15.4734 38.2702 15.8832 37.8568 16.159L31.392 20.4566C30.9612 20.7435 30.4423 20.8677 29.9282 20.807C29.4141 20.7462 28.9384 20.5045 28.5863 20.125L25.7008 16.9632C25.5034 16.7489 25.2655 16.5757 25.0009 16.4537C24.7342 16.3305 24.445 16.2637 24.1513 16.2574C23.8577 16.251 23.5659 16.3053 23.2941 16.4168C23.0216 16.5236 22.7747 16.6868 22.5697 16.8957L16.7065 22.7896C16.5027 22.9939 16.3438 23.2386 16.2399 23.5079C16.1292 23.7764 16.0749 24.0647 16.0803 24.3551C16.0879 24.6453 16.1526 24.9311 16.2706 25.1962C16.3882 25.4603 16.5573 25.6982 16.7679 25.8961L19.9543 28.886C20.3461 29.231 20.598 29.7075 20.6625 30.2256C20.7269 30.7436 20.5995 31.2674 20.3042 31.6979C18.929 33.7546 17.566 35.7744 16.1969 37.8373C15.9101 38.2506 15.4858 38.5486 14.9998 38.6784C14.5261 38.8245 14.0165 38.8028 13.557 38.617L9.36377 36.9102C8.83265 36.6926 8.23723 36.6926 7.70612 36.9102C7.18222 37.1268 6.76515 37.5417 6.54577 38.0645C5.52048 40.5202 4.51976 42.976 3.51289 45.4318C3.29881 45.9572 3.30058 46.5459 3.51782 47.07C3.73506 47.5941 4.15023 48.0114 4.67324 48.2313L8.8235 49.9381C9.2716 50.1333 9.63975 50.4755 9.8672 50.9081C10.1004 51.3442 10.1743 51.8479 10.0759 52.3325H9.97771C9.50497 55.0216 9.04452 57.6369 8.51652 60.2523C8.44899 60.5777 7.66314 60.9338 7.17199 60.9461C5.53276 60.9952 3.89967 60.9461 2.1745 60.9461C1.88565 60.9422 1.59917 60.9987 1.33339 61.1119C1.06317 61.2225 0.818642 61.3876 0.615081 61.5969C0.412493 61.8046 0.253807 62.051 0.148485 62.3213C0.0417832 62.5907 -0.00837162 62.879 0.00113845 63.1686V71.905C0.00113731 72.1901 0.0573971 72.4724 0.166694 72.7358C0.27599 72.9991 0.436175 73.2383 0.63807 73.4396C0.839966 73.6409 1.0796 73.8004 1.34325 73.909C1.6069 74.0175 1.88938 74.073 2.1745 74.0722H7.17199C7.63245 74.0722 8.44899 74.4467 8.51652 74.7721C9.04452 77.3752 9.50497 79.9967 9.97771 82.6858H10.0759C10.1734 83.1695 10.1 83.672 9.86825 84.1076C9.63647 84.5431 9.2607 84.8847 8.80508 85.0741L4.65482 86.7808C4.39184 86.8953 4.15243 87.0577 3.94879 87.2597C3.55016 87.6731 3.32971 88.2264 3.33485 88.8007C3.33614 89.0877 3.39458 89.3715 3.50675 89.6356C4.51362 92.0914 5.51435 94.5104 6.53963 97.003C6.75739 97.5328 7.17606 97.9549 7.70412 98.1769C8.23218 98.399 8.82667 98.4029 9.35763 98.1879L13.5509 96.4566C14.0104 96.2675 14.5212 96.243 14.9967 96.3874C15.4722 96.5317 15.8832 96.8359 16.1601 97.2485C17.5292 99.293 18.8922 101.313 20.2674 103.388C20.5584 103.814 20.6869 104.33 20.6296 104.843C20.5683 105.355 20.3293 105.828 19.9543 106.181L16.7679 109.159C16.5573 109.357 16.3882 109.595 16.2706 109.859C16.1532 110.124 16.0885 110.41 16.0803 110.7C16.0749 110.99 16.1292 111.279 16.2399 111.547C16.3438 111.817 16.5027 112.061 16.7065 112.266L22.5697 118.159C22.7757 118.367 23.0223 118.53 23.2941 118.638C23.5669 118.75 23.8597 118.804 24.1544 118.798C24.4491 118.792 24.7393 118.725 25.007 118.601C25.2726 118.478 25.5122 118.305 25.7131 118.092L28.5863 114.936C28.9386 114.558 29.412 114.315 29.9247 114.249C30.4399 114.187 30.9602 114.311 31.392 114.599L37.8384 118.896C38.2573 119.17 38.5694 119.58 38.7225 120.057C38.8686 120.53 38.8469 121.04 38.6611 121.499C38.127 122.819 37.5683 124.194 36.9482 125.662C36.7304 126.19 36.7309 126.784 36.9495 127.312C37.1682 127.84 37.5871 128.26 38.1147 128.48L45.482 131.55C46.014 131.768 46.6107 131.768 47.1429 131.55C47.675 131.332 48.0996 130.912 48.3246 130.383C49.178 128.394 49.9515 126.509 50.7803 124.581L50.9829 124.63C50.9343 124.692 50.8912 124.758 50.854 124.827L58.8721 126.405C59.3652 126.504 59.8091 126.769 60.129 127.158C60.4489 127.546 60.6251 128.032 60.628 128.535V132.863C60.6242 133.145 60.6765 133.425 60.7819 133.686C60.8873 133.948 61.0437 134.186 61.2419 134.386C61.6501 134.785 62.1999 135.006 62.7706 135H71.7895C72.3616 135 72.9103 134.773 73.3154 134.369C73.7205 133.965 73.9489 133.417 73.9506 132.845V128.517C73.9515 128.014 74.1273 127.528 74.4478 127.141C74.76 126.758 75.1928 126.492 75.6757 126.386L83.7061 124.808C83.6575 124.747 83.6144 124.681 83.5772 124.612H83.7184C84.5226 126.546 85.3208 128.425 86.1741 130.414C86.2842 130.677 86.4451 130.916 86.6477 131.117C86.8502 131.317 87.0904 131.476 87.3545 131.584C87.6186 131.692 87.9014 131.746 88.1866 131.745C88.4718 131.743 88.7539 131.685 89.0167 131.574L96.384 128.504C96.9072 128.279 97.3215 127.858 97.5382 127.332C97.7559 126.805 97.7559 126.213 97.5382 125.686L95.8192 121.561C95.6368 121.098 95.6152 120.588 95.7578 120.112C95.904 119.635 96.2097 119.223 96.6235 118.945L103.082 114.648C103.512 114.36 104.03 114.236 104.543 114.298C105.056 114.362 105.53 114.606 105.882 114.985L108.761 118.135C108.959 118.352 109.198 118.527 109.465 118.65C109.732 118.772 110.021 118.839 110.314 118.847C110.607 118.853 110.897 118.799 111.168 118.687C111.441 118.579 111.69 118.416 111.898 118.209L117.755 112.315C117.959 112.109 118.12 111.865 118.228 111.596C118.393 111.191 118.43 110.746 118.334 110.319C118.239 109.892 118.015 109.505 117.694 109.208L114.477 106.212C114.102 105.862 113.865 105.389 113.807 104.879C113.75 104.369 113.876 103.856 114.164 103.431L118.277 97.2915C118.554 96.8902 118.957 96.5938 119.423 96.4501C119.889 96.3064 120.389 96.3238 120.843 96.4995L125.043 98.2308C125.574 98.4409 126.167 98.4345 126.693 98.213C127.22 97.9915 127.639 97.5726 127.861 97.0459C128.88 94.5902 129.887 92.1344 130.894 89.6786C131.11 89.1499 131.11 88.557 130.893 88.0285C130.676 87.4999 130.259 87.0782 129.733 86.8545L125.571 85.1416C125.118 84.952 124.745 84.6114 124.515 84.1777C124.282 83.7415 124.207 83.2387 124.3 82.7533L124.49 82.7227ZM119.303 69.9158C119.099 73.417 118.585 76.8933 117.768 80.3037H117.878C115.785 88.4078 111.542 96.0268 105.065 103.118C100.598 108.142 95.1565 112.207 89.0715 115.065C82.9865 117.924 76.3843 119.518 69.6652 119.75C68.8732 119.75 68.069 119.811 67.2647 119.823C66.4679 119.839 65.6708 119.814 64.8765 119.75C58.1573 119.521 51.5544 117.932 45.4675 115.077C39.3806 112.222 33.9363 108.162 29.4643 103.142C22.9687 96.0514 18.7325 88.4078 16.6574 80.3283H16.7679C15.9452 76.9186 15.4295 73.4421 15.2269 69.9404C15.1778 69.1484 15.141 68.3441 15.1348 67.5521C15.1287 66.7601 15.1778 65.962 15.2269 65.1577C15.4299 61.6561 15.9457 58.1796 16.7679 54.7698H16.6574C18.7448 46.6597 22.981 39.0222 29.4643 31.925C33.9279 26.8971 39.366 22.8278 45.4488 19.9637C51.5317 17.0995 58.1327 15.5002 64.8519 15.2626C65.6439 15.2626 66.4482 15.2012 67.2402 15.1889C68.0321 15.1767 68.8487 15.1889 69.6407 15.2626C76.3669 15.4914 82.9762 17.0866 89.0663 19.9511C95.1564 22.8157 100.6 26.8896 105.065 31.925C111.567 39.0099 115.809 46.6597 117.878 54.733H117.768C118.585 58.1435 119.099 61.6197 119.303 65.1209C119.358 65.9252 119.382 66.7294 119.388 67.5091C119.395 68.2889 119.388 69.1607 119.303 69.9649V69.9158Z" fill="#494949"/>
<path d="M69.7085 21.8623V65.0777H112.942C112.332 53.8127 107.58 43.1706 99.5996 35.1961C91.6194 27.2217 80.974 22.4773 69.7085 21.8746V21.8623ZM86.285 60.0495C79.4518 60.4056 73.9447 54.0206 74.4788 48.225C80.2131 47.3287 87.2611 54.389 86.2788 60.0495H86.285ZM87.3164 36.0321C92.0315 40.0227 92.32 48.2741 87.3164 52.7927C86.1869 51.7087 85.2883 50.4075 84.6744 48.9674C84.0605 47.5273 83.744 45.9779 83.744 44.4124C83.744 42.8469 84.0605 41.2976 84.6744 39.8574C85.2883 38.4173 86.1869 37.1162 87.3164 36.0321ZM88.4522 60.0495C87.4699 54.389 94.5179 47.3287 100.252 48.225C100.829 54.0206 95.3406 60.4056 88.4583 60.0495H88.4522Z" fill="#4BA80F"/>
<path d="M69.7085 69.9893V113.211C78.7475 112.73 87.4407 109.579 94.6884 104.156C101.936 98.7332 107.413 91.2827 110.425 82.747C110.609 82.1637 110.806 81.6051 110.978 81.0402C111.088 80.6719 111.199 80.2544 111.297 79.9351C111.395 79.6159 111.475 79.3212 111.561 78.9712C111.61 78.8142 111.649 78.6543 111.678 78.4924C111.764 78.1547 111.85 77.8047 111.929 77.4609C112.009 77.1171 112.064 76.7733 112.138 76.4234C112.554 74.304 112.821 72.1582 112.936 70.0015L69.7085 69.9893ZM96.2984 81.3656C97.3971 83.0109 98.043 84.9167 98.1709 86.8911H91.5219L91.4544 86.1605C91.3316 84.9326 91.2149 83.8091 91.1167 82.6365C91.145 82.5764 91.1871 82.5238 91.2395 82.483L95.4327 81.5682L96.2984 81.3656ZM95.0705 79.6957L90.8404 80.635L89.2257 76.2822C91.4772 76.8204 93.5192 78.0123 95.095 79.708L95.0705 79.6957ZM89.6125 86.885H83.0495L83.424 82.7409H89.2442L89.6125 86.885ZM85.6894 76.4479C85.9473 76.1348 86.1622 75.9813 86.3034 75.9813C86.4446 75.9813 86.6779 76.1348 86.9173 76.4602C87.863 77.7564 88.4936 79.2552 88.7591 80.8376H83.7555C84.0653 79.248 84.7352 77.7505 85.714 76.4602L85.6894 76.4479ZM83.4117 76.3251L81.7909 80.721L77.5792 79.7387C79.1615 78.0623 81.196 76.8808 83.4363 76.3374L83.4117 76.3251ZM76.3329 81.3165L77.2538 81.5498L80.1455 82.2558H80.2744C80.5359 82.334 80.8061 82.3794 81.0787 82.3909H81.1278C81.2502 82.3768 81.3736 82.405 81.4778 82.4707C81.5392 82.5382 81.5515 82.6917 81.4778 82.9496C81.355 83.9012 81.269 84.8405 81.1708 85.8474C81.1584 86.1844 81.1277 86.5206 81.0787 86.8543L74.4359 86.8911C74.5921 84.9036 75.2536 82.9889 76.3575 81.3288L76.3329 81.3165ZM76.5417 94.3628C76.4553 94.3623 76.3706 94.339 76.2961 94.2953C75.2285 92.6501 74.5832 90.7669 74.4174 88.8127H81.1278L81.5085 93.1717L81.2076 93.227C80.8209 93.2945 80.4279 93.3559 80.0473 93.4542L78.4081 93.8839C77.7941 94.0374 77.1802 94.2093 76.6031 94.3505L76.5417 94.3628ZM77.6284 95.9897C78.9877 95.5309 80.3909 95.214 81.8155 95.0443L83.3994 99.4033C81.1945 98.8511 79.1979 97.6693 77.6529 96.002L77.6284 95.9897ZM83.5161 92.8525C83.3871 91.7597 83.2828 90.6791 83.1723 89.5372C83.1616 89.3049 83.1391 89.0734 83.1047 88.8434H89.6862L89.3117 93.006H87.1076H83.6941C83.63 92.9753 83.5766 92.9261 83.5406 92.8648L83.5161 92.8525ZM87.1076 99.127C86.7577 99.5015 86.5305 99.6857 86.3341 99.6857C86.1376 99.6857 85.8982 99.5076 85.5789 99.127C84.71 97.8326 84.128 96.3673 83.8722 94.8294H88.7837C88.5407 96.3657 87.9781 97.834 87.1322 99.1393L87.1076 99.127ZM89.1828 99.4155C89.2138 99.2948 89.257 99.1776 89.3117 99.0656C89.5573 98.5253 89.8151 97.9728 90.03 97.4079C90.2449 96.8431 90.3984 96.2721 90.5703 95.6582C90.6255 95.4433 90.6931 95.2223 90.7545 94.9951L95.0521 95.9345C94.1987 97.2852 91.2763 99.0165 89.2073 99.4585L89.1828 99.4155ZM98.0911 89.5924C97.9442 90.3518 97.7536 91.1021 97.5201 91.8395C97.2695 92.5134 96.9614 93.1646 96.5992 93.7857C96.501 93.9453 96.4211 94.1172 96.3352 94.283C96.2688 94.3341 96.1908 94.3679 96.108 94.3812C94.7389 94.0742 93.3453 93.7673 92.0008 93.4112L91.1474 93.2086H91.0676C91.0576 93.0203 91.0783 92.8316 91.129 92.6499C91.1965 92.1158 91.2579 91.5509 91.307 90.9431C91.3561 90.3353 91.3868 89.8503 91.4175 89.3162V88.7943H98.2753C98.2261 89.0645 98.177 89.3223 98.1156 89.574L98.0911 89.5924Z" fill="#04A5B2"/>
<path d="M48.5454 65.0784H64.7719V48.502C60.7575 49.4075 57.0902 51.4538 54.2115 54.3947C51.3327 57.3355 49.3651 61.0456 48.5454 65.0784Z" fill="#0278BA"/>
<path d="M35.3945 65.0785H42.9829C43.9452 59.6101 46.5427 54.5618 50.4325 50.5996C54.3224 46.6375 59.3219 43.9475 64.7717 42.8845V35.29C57.2257 36.1958 50.2106 39.6358 44.874 45.0471C39.5374 50.4584 36.1953 57.5207 35.3945 65.0785Z" fill="#0278BA"/>
<path d="M64.7722 21.9287V29.91C55.8915 31.0767 47.6518 35.1662 41.3522 41.5335C35.0527 47.9009 31.0517 56.1839 29.9801 65.0766H21.6182L21.6673 64.1618C22.4455 53.8663 26.6846 44.1371 33.6951 36.557C40.7055 28.977 50.0746 23.9922 60.2781 22.4137H60.4009L64.7722 21.9287Z" fill="#0278BA"/>
<path opacity="0.55" d="M60.4009 22.3646C61.8436 22.1497 63.2925 22.0085 64.7721 21.9287L60.4009 22.3646Z" fill="white"/>
<path d="M64.9509 69.9893V95.3021H56.0856V84.7607L39.8406 101.042C37.6616 99.2441 35.6593 97.2417 33.8608 95.0627L50.0628 78.873H39.6258V69.9893H64.9509Z" fill="#FF6700"/>
<path d="M26.389 75.5752V79.0133H29.6613L24.8296 83.8389L24.7866 83.8818C25.4741 84.7465 26.2567 85.5312 27.1196 86.221L31.9698 81.377V84.5817H35.4078V75.5752H26.389ZM31.9145 79.0133H31.9698V79.0685L31.9145 79.0133Z" fill="#FF6700"/>
<path d="M50.486 99.6914V103.142H53.7092L48.8774 107.967V108.01C49.5637 108.873 50.3464 109.653 51.2104 110.337V110.294L56.0422 105.462V108.667H59.4864V99.6914H50.486ZM56.0115 103.191L55.9501 103.129H56.0176V103.197L56.0115 103.191Z" fill="#FF6700"/>
</svg>
